<?xml version="1.0" encoding="UTF-8"?>
<svg id="Layer_2" data-name="Layer 2" xmlns="http://www.w3.org/2000/svg" viewBox="0 0 470.69 174.89">
  <defs>
    <style>
      .cls-1 {
        fill: #e83a95;
      }

      .cls-1, .cls-2, .cls-3, .cls-4 {
        stroke-width: 0px;
      }

      .cls-2 {
        fill: #2ebcb1;
      }

      .cls-3 {
        fill: #894d9e;
      }

      .cls-4 {
        fill: #5463ad;
      }
    </style>
  </defs>
  <g id="Layer_1-2" data-name="Layer 1">
    <g>
      <path class="cls-4" d="M22.35,142.7c-1.15,3.6-2.17,6.75-3.03,9.43-.86,2.68-1.61,5-2.25,6.99-.65,1.99-1.21,3.7-1.7,5.14-.48,1.44-.93,2.76-1.36,3.92-.5,1.34-1.1,2.41-1.75,3.17-.65.76-1.34,1.32-2.08,1.68-.74.36-1.55.58-2.42.66-.87.08-1.79.14-2.76.17-.55.02-1.24.03-2.06.03-.82,0-1.58,0-2.25-.02-.27-.2-.41-.31-.68-.51,3.7-8.82,7.38-17.66,11.03-26.5,3.47-8.41,6.83-16.46,10.06-24.14-.68-1.13-1.02-2.09-1.02-2.86,0-1.4,1.03-2.14,3.1-2.24,5.22-12.52,10.5-25.05,15.8-37.52,3.86-9.07,7.89-18.16,12.22-27.05.32-.67.74-1.23,1.26-1.68.52-.45,1.08-.81,1.7-1.07.61-.26,1.26-.46,1.94-.59s1.34-.2,1.99-.23c.94-.04,1.86.02,2.76.15.9.14,1.87.42,2.91.86,1.84,10.65,3.69,21.31,5.6,31.95,1.7,9.44,3.27,17.83,4.73,25.17,1.45,7.34,2.83,13.73,4.12,19.15,1.29,5.43,2.54,10.06,3.73,13.91,1.19,3.85,2.39,6.99,3.59,9.44,1.19,2.45,2.43,4.34,3.71,5.68,1.28,1.34,2.63,2.22,4.05,2.66,1.42.43,2.97.56,4.65.38,1.1-.12,2.21-.37,3.35-.77,1.13-.4,2.38-.92,3.73-1.58.54,1.61.81,2.41,1.36,4.02-3.72,2.35-7.27,4.23-10.67,5.61-3.39,1.39-6.4,2.22-9.02,2.49-1.49.15-2.88,0-4.19-.45-1.31-.45-2.57-1.33-3.78-2.64-1.21-1.3-2.39-3.11-3.54-5.4-1.15-2.3-2.3-5.21-3.47-8.76-1.16-3.54-2.36-7.78-3.59-12.72-1.23-4.94-2.52-10.7-3.88-17.29-5.98.48-11.89.98-17.72,1.52-5.83.54-15.95.04-18.11,1.74-1.39,1.1-2.4,6.98-3.42,10.02-1.02,3.04-1.9,5.74-2.64,8.07ZM62.97,115.08c-.68-3.37-1.41-7.1-2.18-11.21-.78-4.11-1.57-8.46-2.38-13.06-.81-4.6-1.63-9.4-2.47-14.4-.84-5-1.67-10.08-2.47-15.24-.12,0-.17,0-.29.01-4.31,9.91-8.59,19.85-12.46,29.93-3.64,9.47-6.9,18.21-9.74,26.19,5.56-.35,10.94-.7,16.14-1.06,5.2-.36,10.49-.74,15.85-1.16Z"/>
      <path class="cls-1" d="M100.26,97.1c2.29-1.05,4.5-2.01,6.62-2.9,2.12-.88,4.06-1.66,5.84-2.33,1.78-.67,3.35-1.21,4.7-1.6,1.36-.4,2.42-.63,3.2-.71,1.87-.18,3.34.26,4.39,1.32,1.05,1.06,1.58,3,1.58,5.83,0,.67-.07,2.12-.19,4.34-.13,2.22-.32,5.01-.56,8.37s-.54,7.2-.9,11.51c-.36,4.32-.76,8.91-1.21,13.78.12,0,.17.01.29.02,2.26-8.82,4.67-16.26,7.22-22.34,2.55-6.08,5.15-11.03,7.81-14.87,2.65-3.84,5.32-6.66,8-8.47,2.68-1.81,5.28-2.86,7.81-3.14,2.23-.25,4.12.11,5.67,1.06,1.55.95,2.81,2.29,3.78,4,.97,1.71,1.68,3.69,2.13,5.94.45,2.25.68,4.57.68,6.96,0,2.09-.07,4.31-.19,6.67-.13,2.35-.29,4.68-.48,6.98-.19,2.3-.4,4.48-.61,6.55-.21,2.07-.4,3.88-.56,5.42.12,0,.17,0,.29.01,2.26-8.86,4.68-16.33,7.25-22.43,2.57-6.1,5.19-11.06,7.85-14.88,2.67-3.82,5.34-6.64,8.02-8.47,2.68-1.82,5.28-2.89,7.81-3.2,1.62-.2,3.18-.05,4.7.45,1.52.5,2.87,1.44,4.05,2.81,1.18,1.37,2.13,3.21,2.84,5.5.71,2.29,1.07,5.12,1.07,8.48,0,.95-.06,2.25-.17,3.92-.11,1.66-.25,3.52-.41,5.56-.16,2.05-.35,4.22-.56,6.52-.21,2.3-.4,4.55-.56,6.76-.16,2.21-.3,4.31-.41,6.31-.11,1.99-.17,3.71-.17,5.15,0,2.55.1,4.61.32,6.18.21,1.57.56,2.78,1.04,3.64.48.86,1.13,1.4,1.94,1.62.81.22,1.79.25,2.96.07,1.68-.25,3.42-.75,5.24-1.49,1.81-.74,3.64-1.67,5.48-2.79.37.96.55,1.44.92,2.39-1.16,1.12-2.63,2.3-4.41,3.54-1.78,1.24-3.64,2.42-5.6,3.53-1.96,1.11-3.9,2.07-5.84,2.87-1.94.8-3.65,1.31-5.14,1.54-1.75.26-3.12,0-4.12-.8-1-.8-1.75-1.98-2.25-3.55-.5-1.56-.82-3.44-.97-5.61-.15-2.18-.22-4.53-.22-7.05,0-3.05.1-6.26.32-9.64.21-3.37.44-6.59.7-9.64.26-3.05.49-5.81.7-8.28.21-2.47.32-4.33.32-5.57,0-3.57-.62-6.17-1.87-7.8-1.24-1.63-2.93-2.31-5.07-2.04-1.65.21-3.4,1.23-5.26,3.06-1.86,1.83-3.72,4.27-5.58,7.31-1.86,3.04-3.65,6.58-5.38,10.62-1.73,4.04-3.29,8.39-4.68,13.05-1.39,4.66-2.56,9.5-3.51,14.52-.95,5.02-1.58,10.01-1.87,14.97-4.05,1.09-6.08,1.64-10.13,2.72-.31.02-.47.03-.78.06.36-7.05.69-13.29.99-18.73.31-5.44.58-10.18.82-14.25.24-4.06.44-7.5.58-10.31.15-2.81.22-5.14.22-6.97,0-3.73-.62-6.47-1.87-8.22-1.24-1.75-2.84-2.52-4.78-2.3-1.71.2-3.51,1.19-5.41,2.99-1.89,1.8-3.76,4.21-5.6,7.23-1.84,3.02-3.61,6.55-5.31,10.59-1.7,4.04-3.23,8.37-4.61,13.01-1.37,4.63-2.52,9.48-3.44,14.54-.92,5.06-1.53,10.11-1.82,15.13-4.05,1.03-6.08,1.54-10.13,2.55-.31.02-.47.03-.78.04.26-3.24.5-6.77.73-10.59.23-3.81.44-7.68.63-11.61.19-3.93.36-7.82.51-11.67.15-3.85.27-7.45.39-10.79.11-3.34.19-6.33.24-8.97.05-2.64.07-4.72.07-6.24,0-1.39-.1-2.54-.29-3.47-.19-.93-.49-1.65-.9-2.17-.4-.52-.91-.87-1.53-1.05-.61-.18-1.34-.23-2.18-.15-1.16.11-2.55.41-4.17.89-1.62.49-3.46,1.11-5.53,1.87-.29-1.44-.44-2.16-.73-3.61Z"/>
      <path class="cls-4" d="M269.89,91.65c0-2.52-.42-4.65-1.26-6.39-.84-1.74-1.94-3.12-3.3-4.13-1.36-1.01-2.89-1.69-4.61-2.05-1.71-.36-3.43-.43-5.14-.21-2.3.29-4.23.78-5.82,1.47-1.58.69-2.87,1.51-3.85,2.47-.99.97-1.7,2.05-2.13,3.25-.44,1.2-.65,2.46-.65,3.78,0,1.55.28,3.06.85,4.55.57,1.49,1.4,2.9,2.5,4.23-.08.22-.12.33-.19.56-1.84,1.15-3.7,1.86-5.58,2.11-1.1.15-2.13.12-3.08-.09-.95-.21-1.78-.59-2.47-1.14-.69-.55-1.24-1.27-1.65-2.15-.4-.88-.61-1.91-.61-3.07,0-1.91.46-3.77,1.38-5.57.92-1.8,2.14-3.5,3.66-5.08,1.52-1.58,3.28-3.05,5.28-4.41,2-1.35,4.07-2.54,6.21-3.57,2.13-1.02,4.27-1.87,6.42-2.54,2.15-.67,4.14-1.12,5.99-1.35,3.39-.42,6.29-.33,8.7.26,2.41.59,4.36,1.65,5.87,3.17,1.5,1.52,2.6,3.44,3.3,5.76.7,2.33,1.04,5.01,1.04,8.06,0,2.1-.09,4.41-.27,6.94-.18,2.53-.38,5.19-.61,7.97-.23,2.78-.43,5.64-.61,8.59-.18,2.95-.27,5.87-.27,8.76,0,4.58.87,7.89,2.59,9.94,1.73,2.05,4,2.87,6.81,2.46,2.49-.36,5.27-1.66,8.34-3.9.56.73.84,1.1,1.41,1.84-2.17,2.42-4.53,4.37-7.08,5.85-2.55,1.48-5.24,2.43-8.05,2.85-2.1.31-4.04.25-5.82-.18-1.78-.43-3.31-1.25-4.61-2.44-1.29-1.19-2.3-2.79-3.01-4.79-.71-2-1.07-4.39-1.07-7.17,0-.83.02-1.66.07-2.5.05-.84.15-1.73.32-2.68-.12.02-.17.02-.29.04-1.39,2.94-3,5.88-4.82,8.82-1.83,2.94-3.83,5.62-6.01,8.05-2.18,2.43-4.51,4.48-6.98,6.16s-5.07,2.73-7.78,3.15c-2.23.34-4.27.27-6.11-.22-1.84-.49-3.42-1.32-4.73-2.48-1.31-1.16-2.33-2.62-3.05-4.37-.73-1.75-1.09-3.73-1.09-5.94,0-2.85.53-5.52,1.58-8.01,1.05-2.48,2.5-4.78,4.36-6.89,1.86-2.11,4.08-4.01,6.67-5.72,2.59-1.7,5.4-3.21,8.44-4.51,3.04-1.31,6.25-2.41,9.65-3.31,3.39-.9,6.85-1.59,10.37-2.07.23-2.04.41-4.01.56-5.91.15-1.9.22-3.98.22-6.25ZM240.12,128.85c0,1.26.14,2.44.41,3.54.27,1.1.71,2.05,1.31,2.83.6.78,1.36,1.35,2.28,1.71.92.36,2.03.44,3.32.25,1.45-.22,2.96-.78,4.51-1.69,1.55-.91,3.08-2.06,4.58-3.47,1.5-1.41,2.94-3.04,4.31-4.89,1.37-1.85,2.61-3.83,3.71-5.93,1.1-2.11,2.01-4.29,2.74-6.55.73-2.26,1.2-4.53,1.43-6.83-2.39.39-4.77.87-7.13,1.44-2.36.57-4.6,1.26-6.71,2.07-2.12.81-4.08,1.76-5.89,2.85-1.81,1.09-3.37,2.35-4.68,3.78-1.31,1.43-2.34,3.04-3.08,4.84-.74,1.8-1.12,3.81-1.12,6.04Z"/>
      <path class="cls-3" d="M324.38,7.31c-.61,5.05-1.23,10.25-1.84,15.62-.61,5.37-1.2,10.8-1.77,16.3-.57,5.5-1.12,11.03-1.65,16.59-.53,5.56-1.02,11.05-1.45,16.47-.44,5.42-.82,10.72-1.14,15.91-.32,5.19-.58,10.16-.78,14.92.21,0,.32-.01.53-.02,2.55-6.4,5.3-12.08,8.24-17.04,2.94-4.96,5.93-9.16,8.97-12.6,3.04-3.44,6.05-6.09,9.04-7.97,2.99-1.88,5.81-2.94,8.46-3.19,2.23-.21,4.2,0,5.91.63,1.71.63,3.2,1.54,4.46,2.73,1.26,1.19,2.31,2.6,3.15,4.23.84,1.63,1.52,3.35,2.04,5.16.52,1.81.88,3.66,1.09,5.54.21,1.88.32,3.65.32,5.31,0,4.57-.48,8.89-1.43,12.96-.95,4.07-2.27,7.83-3.95,11.29-1.68,3.46-3.67,6.59-5.96,9.42-2.3,2.82-4.78,5.28-7.47,7.37-2.68,2.09-5.51,3.78-8.48,5.08-2.97,1.29-5.96,2.14-8.97,2.54-2,.27-4.02.32-6.04.15-2.02-.17-3.99-.57-5.91-1.21-1.92-.64-3.74-1.56-5.45-2.75-1.71-1.19-3.25-2.67-4.61-4.43-1.13,2.92-2.28,5.34-3.44,7.26-1.16,1.93-2.25,3.49-3.25,4.71-1.01-.1-1.51-.15-2.52-.25,1.78-5.08,3.09-11.04,3.93-17.91.84-6.86,1.53-14.62,1.94-23.16.18-3.65.36-7.84.61-12.52.24-4.68.49-9.61.75-14.8.26-5.18.53-10.48.82-15.9.29-5.42.58-10.69.87-15.8.29-5.12.56-9.96.82-14.54.26-4.58.54-8.67.73-12.17.04-.75.27-1.43.73-2.02.45-.59,1.02-1.08,1.7-1.47s1.45-.7,2.3-.93c.86-.23,1.7-.38,2.55-.46,1.97-.17,4.02.15,6.16.97ZM356.13,91.55c0-2.1-.17-4.24-.51-6.42-.34-2.19-.87-4.14-1.6-5.88-.73-1.73-1.68-3.12-2.86-4.16-1.18-1.04-2.61-1.48-4.29-1.31-1.97.2-3.92.87-5.84,2.02-1.92,1.15-3.78,2.62-5.58,4.42-1.79,1.8-3.51,3.84-5.16,6.13-1.65,2.29-3.19,4.68-4.63,7.16-1.44,2.48-2.73,4.97-3.88,7.47-1.15,2.5-2.13,4.87-2.96,7.1-.82,2.23-1.46,4.25-1.91,6.04-.45,1.8-.68,3.21-.68,4.25.48,1.88,1.24,3.54,2.25,4.98,1.02,1.44,2.25,2.63,3.68,3.54,1.44.92,3.04,1.56,4.8,1.92,1.76.36,3.63.41,5.6.15,3.23-.42,6.28-1.59,9.14-3.52,2.86-1.92,5.36-4.49,7.49-7.71,2.13-3.22,3.82-7.03,5.07-11.44,1.24-4.41,1.87-9.32,1.87-14.75Z"/>
      <path class="cls-2" d="M403.4,2.27c-.65,5.17-1.28,10.46-1.91,15.9-.63,5.43-1.23,10.93-1.79,16.48-.57,5.56-1.09,11.14-1.58,16.75-.48,5.61-.9,11.13-1.26,16.57-.36,5.44-.63,10.77-.82,16.01-.19,5.23-.29,10.25-.29,15.04,0,3,.04,5.58.12,7.73.08,2.15.21,3.96.39,5.43.18,1.47.42,2.65.73,3.53.31.88.69,1.55,1.14,1.99.45.44.99.72,1.6.84.61.11,1.34.13,2.18.06,1.55-.13,3.22-.5,5.02-1.08,1.79-.58,3.61-1.34,5.45-2.27.37.91.55,1.37.92,2.28-1.16.96-2.63,1.97-4.39,3.02-1.76,1.05-3.61,2.04-5.55,2.96-1.94.92-3.84,1.71-5.7,2.35-1.86.64-3.47,1.03-4.82,1.16-1.75.17-3.13-.11-4.14-.85s-1.79-2.02-2.33-3.86c-.53-1.84-.87-4.26-1.02-7.28-.15-3.02-.22-6.7-.22-11.06,0-1.58.05-3.85.15-6.8.1-2.95.23-6.38.41-10.29.18-3.91.38-8.19.61-12.84.23-4.65.47-9.45.73-14.42.26-4.97.53-9.98.82-15.03.29-5.06.58-9.94.87-14.66.29-4.72.56-9.17.82-13.35.26-4.18.55-7.91.73-11.08.04-.72.26-1.37.68-1.93.42-.55.96-1,1.62-1.35.66-.35,1.41-.62,2.23-.81.82-.19,1.66-.3,2.5-.33,1.94-.08,3.98.32,6.11,1.21Z"/>
      <path class="cls-3" d="M467.29,106.53c.19.08.45.2.75.36.3.15.59.33.85.51.26.19.48.39.68.6.19.22.29.43.29.63,0,.12-.05.24-.15.36-1.81,2.33-3.76,4.38-5.84,6.14-2.09,1.76-4.25,3.25-6.5,4.47-2.25,1.22-4.53,2.17-6.86,2.82-2.33.66-4.62,1.05-6.88,1.17-3.88.21-7.43-.31-10.67-1.57s-6.01-3.08-8.34-5.47c-2.33-2.39-4.14-5.26-5.45-8.61-1.31-3.35-1.96-7-1.96-10.94,0-3.22.38-6.46,1.14-9.72.76-3.26,1.86-6.39,3.3-9.38,1.44-2.99,3.19-5.79,5.26-8.38,2.07-2.6,4.42-4.86,7.05-6.8s5.53-3.47,8.68-4.6c3.15-1.13,6.54-1.72,10.16-1.78,2.39-.04,4.67.23,6.84.8,2.17.57,4.06,1.41,5.7,2.5,1.63,1.1,2.93,2.46,3.9,4.07.97,1.62,1.45,3.45,1.45,5.51,0,3-1.08,5.62-3.22,7.88-2.15,2.26-5.12,4.2-8.9,5.85-3.78,1.65-8.23,3.04-13.36,4.19-5.12,1.15-10.66,2.13-16.6,2.92v.76c0,3.83.52,7.31,1.57,10.42,1.05,3.11,2.5,5.74,4.34,7.89,1.84,2.15,4.01,3.78,6.5,4.9,2.49,1.12,5.17,1.61,8.05,1.48,2.91-.13,5.89-.91,8.94-2.34,3.05-1.42,6.15-3.65,9.28-6.66ZM458.18,71.17c0-1.36-.25-2.63-.75-3.8-.5-1.17-1.2-2.19-2.08-3.05-.89-.86-1.95-1.53-3.18-2.01-1.23-.48-2.55-.7-3.98-.67-2.1.05-4.01.44-5.72,1.18-1.71.74-3.25,1.72-4.61,2.94-1.36,1.23-2.55,2.64-3.59,4.25-1.03,1.61-1.92,3.31-2.64,5.11-.73,1.79-1.32,3.63-1.77,5.51-.45,1.88-.78,3.7-.97,5.48,4.59-.53,8.7-1.23,12.34-2.1,3.64-.87,6.71-1.91,9.21-3.12,2.5-1.21,4.42-2.62,5.75-4.23,1.33-1.61,1.99-3.43,1.99-5.47Z"/>
    </g>
  </g>
</svg>