<?xml version="1.0" encoding="UTF-8"?>
<svg id="Layer_2" data-name="Layer 2" xmlns="http://www.w3.org/2000/svg" viewBox="0 0 68.44 69.82">
  <defs>
    <style>
      .cls-1 {
        fill: #e83a95;
        stroke-width: 0px;
      }
    </style>
  </defs>
  <g id="Layer_1-2" data-name="Layer 1">
    <path class="cls-1" d="M37.02.09C22.98,1.21,11.59,12.56,10.42,26.59c-.58,7.03,1.36,13.59,5,18.89L1.84,59.07c-2.46,2.46-2.46,6.44,0,8.9h0c2.46,2.46,6.44,2.46,8.9,0l13.89-13.89c5.25,3.1,11.55,4.61,18.23,3.83,13.11-1.54,23.69-12,25.34-25.1C70.53,14.32,55.36-1.36,37.02.09ZM41.53,45.39c-10.76,1.37-19.84-7.72-18.48-18.48.93-7.33,6.85-13.25,14.19-14.18,10.76-1.37,19.84,7.72,18.48,18.48-.93,7.33-6.85,13.25-14.18,14.18Z"/>
  </g>
</svg>