<?xml version="1.0" encoding="UTF-8"?>
<svg id="Layer_2" data-name="Layer 2" xmlns="http://www.w3.org/2000/svg" viewBox="0 0 547.11 473.61">
  <defs>
    <style>
      .cls-1 {
        fill: #8b2b3d;
      }

      .cls-1, .cls-2, .cls-3, .cls-4, .cls-5, .cls-6, .cls-7, .cls-8, .cls-9 {
        stroke-width: 0px;
      }

      .cls-2 {
        fill: #8a293b;
      }

      .cls-3 {
        fill: #4f141d;
      }

      .cls-4 {
        fill: #45131a;
      }

      .cls-5 {
        fill: #ef6180;
      }

      .cls-6 {
        fill: #e79bab;
      }

      .cls-7 {
        fill: #1d1012;
      }

      .cls-8 {
        fill: #040303;
      }

      .cls-9 {
        fill: #060304;
      }
    </style>
  </defs>
  <g id="Layer_1-2" data-name="Layer 1">
    <g>
      <path class="cls-6" d="M384.08,64.58c15.07-103.23,181.5-74.79,161.33,29.31-18.54,110.52-186.75,76.4-161.33-29.31Z"/>
      <path class="cls-9" d="M468.21,111.69c-42.42,4.85-45.72-64.87-4.41-65.24,46.98-2.65,48.1,66.07,4.41,65.24Z"/>
      <path class="cls-5" d="M288.1,133.11c73.67,8.31,182.59,70.03,165.34,154.49-1.23,15.68-24.68,7.95-36.84,8.63-96.31,5.38-192.21,3.17-288.02,10.23-54.75,4.03-35.68-4.27-52.12-46.22.48-24.52,54.16-78.13,56.65-80.54,41.9-34.56,99.48-51.89,154.98-46.59Z"/>
      <path class="cls-8" d="M35.36,107.95c-46.99.68-46.52-72.33-2.28-73.88,50.91-2.23,52.22,74.62,2.28,73.88Z"/>
      <g>
        <path class="cls-7" d="M496.4,466.09c-20.27-32.29-33.65-69.62-37.39-107.49,1.99-44.45,8.26-142.36,30.91-167.77,1.63-1.82,2.41-4.95-.22-6.64-10.83-4.73-26.03,49.11-28.92,56.97-50.33-100.63-180.92-145.51-282.14-98.98-45.8,18.91-82.53,54.74-106.96,98.05-6.83-8.13-34.88-57.09-47.48-65.71-5.31,1.39-6.86,5.2-2.9,8.83,58.71,64.1,75.59,150.04,52.76,230.02-1.66,5.27-27.39,56.11-10.97,44.01,11.19-16.55,17.25-35.55,22.43-55.56,25.18-92.82-32.77-86.04,65.61-90.05,95.91-.26,191.35-7.21,285.95-9.96,19.86-3.74,12.18,21.44,12.7,34.2-.96,22.41,1.89,44.46,7.08,66.31,4.99,15.3,27.27,64.21,34.69,71.28,5.45-.14,6.95-2.71,4.85-7.51ZM449.06,293.63c-10.56.94-21.22-.17-31.78,1.27-63.22-.97-126.57,4.51-189.85,5.43-39.05,1.77-78.06,2.82-117.09,4.18-6.17-1.62-17.95,4.11-20.13-3.6-.56-17.11-13.74-34.63-9.8-50.98,21.44-42.13,53.5-78.47,97.43-96.73,75.81-38.63,174.77-19.47,234.22,40.57,55.5,56.06,42.37,99.44,37,99.86Z"/>
        <path class="cls-7" d="M331.6,366.32c-13.31,4.08-24.62,11.22-40.38,15.5-7.53,2.04-21.61-1.23-32.66-.98-6.88.16-6.86,10.48.01,10.67,29.1.83,89.18-12.69,78.22-23.93-1.33-1.37-3.37-1.82-5.2-1.26Z"/>
        <path class="cls-7" d="M201.11,103.78c2.24.94,7.47-.63,10.56-1.59,25.6-9.07,53.03-11.44,79.17-4.24,3.29.87,7.4,1.92,10.45,2.08,5.94.37,5.66-2.26,1.34-5.12-26.14-14.04-69.62-11.65-95.75,1.91-2.21,1.31-8.22,5.2-5.82,6.93l.06.03Z"/>
      </g>
      <path class="cls-3" d="M340.98,192.69c11.94,1.28,22.72,8.91,32.01,19.15,4.52,4.99,8.12,10.58,9.72,17.21,2.44,10.1-3.84,17.69-14.02,16.07-20.23-3.21-34.04-15.41-42.07-33.65-4.76-10.81,1.12-18.93,14.37-18.78Z"/>
      <path class="cls-4" d="M156.31,236.24c.49-5.32,3.14-11.2,6.49-16.81,6.95-11.63,15.97-21.19,27.93-27.81,2.36-1.31,4.85-2.21,7.5-2.6,7.31-1.09,12.39,4.04,10.94,11.32-2.77,13.96-10.85,24.81-20.87,34.39-5.8,5.55-11.99,10.62-20.08,12.5-7.45,1.73-12.06-2.08-11.91-10.99Z"/>
      <path class="cls-2" d="M370.01,240.57c-11.08,1.17-24.65-7.81-32.15-16.5-38.13-60.36,74.83-.05,32.15,16.5Z"/>
      <path class="cls-1" d="M204.53,198.93c4.37,14.18-36.51,62.51-43.76,35.05,1.84-13.75,31.3-54.3,43.76-35.05Z"/>
    </g>
  </g>
</svg>